<svg width="65" height="65" viewBox="0 0 65 65" fill="none" xmlns="http://www.w3.org/2000/svg">
<path d="M42.0182 14.1294L51.0603 23.1714L20.3246 53.907C20.2366 53.9951 20.1317 54.0644 20.0162 54.111L5.0466 60.143L11.0787 45.1734C11.1252 45.0579 11.1946 44.953 11.2826 44.865L42.0182 14.1294Z" fill="#828282"/>
<path d="M53.4079 20.8237L44.3659 11.7817L50.5808 5.56679C51.2291 4.9185 52.2802 4.9185 52.9285 5.56679L59.6228 12.2612C60.2711 12.9095 60.2711 13.9605 59.6228 14.6088L53.4079 20.8237Z" fill="#828282"/>
<path fill-rule="evenodd" clip-rule="evenodd" d="M54.5818 24.3452L40.8444 10.6079L8.54509 42.9072C8.39837 43.0539 8.28278 43.2287 8.20523 43.4212L0.405368 62.7779C-0.102695 64.0387 1.15093 65.2923 2.41178 64.7843L21.7685 56.9844C21.9609 56.9069 22.1358 56.7913 22.2825 56.6445L54.5818 24.3452ZM51.0603 23.1714L42.0182 14.1294L11.2826 44.865C11.1946 44.953 11.1252 45.0579 11.0787 45.1734L5.0466 60.143L20.0162 54.111C20.1317 54.0644 20.2366 53.9951 20.3246 53.907L51.0603 23.1714Z" fill="#828282"/>
<path fill-rule="evenodd" clip-rule="evenodd" d="M54.5818 24.3452L40.8444 10.6079L8.54509 42.9072C8.39837 43.0539 8.28278 43.2287 8.20523 43.4212L0.405368 62.7779C-0.102695 64.0387 1.15093 65.2923 2.41178 64.7843L21.7685 56.9844C21.9609 56.9069 22.1358 56.7913 22.2825 56.6445L54.5818 24.3452ZM51.0603 23.1714L42.0182 14.1294L11.2826 44.865C11.1946 44.953 11.1252 45.0579 11.0787 45.1734L5.0466 60.143L20.0162 54.111C20.1317 54.0644 20.2366 53.9951 20.3246 53.907L51.0603 23.1714Z" fill="#030303"/>
<path fill-rule="evenodd" clip-rule="evenodd" d="M40.8444 10.6079L54.5818 24.3452L63.4378 15.4892C64.5723 14.3547 64.574 12.517 63.4395 11.3825L53.8082 1.75123C52.6737 0.616721 50.8354 0.616836 49.7009 1.75135L40.8444 10.6079ZM44.3659 11.7817L53.4079 20.8237L59.6228 14.6088C60.2711 13.9605 60.2711 12.9095 59.6228 12.2612L52.9285 5.56679C52.2802 4.9185 51.2291 4.9185 50.5808 5.56679L44.3659 11.7817Z" fill="#828282"/>
<path fill-rule="evenodd" clip-rule="evenodd" d="M40.8444 10.6079L54.5818 24.3452L63.4378 15.4892C64.5723 14.3547 64.574 12.517 63.4395 11.3825L53.8082 1.75123C52.6737 0.616721 50.8354 0.616836 49.7009 1.75135L40.8444 10.6079ZM44.3659 11.7817L53.4079 20.8237L59.6228 14.6088C60.2711 13.9605 60.2711 12.9095 59.6228 12.2612L52.9285 5.56679C52.2802 4.9185 51.2291 4.9185 50.5808 5.56679L44.3659 11.7817Z" fill="#030303"/>
</svg>
